<svg id="logosandtypes_com" data-name="logosandtypes com" xmlns="http://www.w3.org/2000/svg" viewBox="0 0 150 150"><defs><style>.cls-1{fill:none;}.cls-2{fill:#00a06e;}</style></defs><path class="cls-1" d="M0,.2H150v150H0Z" transform="translate(0 -0.2)"/><path class="cls-2" d="M65.56,133.8a6.78,6.78,0,0,0,6.74-6.68V76.37H30.69v43.2a7,7,0,0,1-1.87,4.85,7.4,7.4,0,0,1-5.33,2.24v7.17H65.56Z" transform="translate(0 -0.2)"/><path class="cls-2" d="M30.69,27.26a7.16,7.16,0,0,0-7.17-7.17v-7.2H72.33V70.36H30.69Z" transform="translate(0 -0.2)"/><path class="cls-2" d="M125,119.55V106.26c0-18-11.6-29.89-28.24-29.89H78.31V105.1c0,17.42,11,28.73,28.73,28.73H132.2v-7.17a7.14,7.14,0,0,1-7.2-7.11" transform="translate(0 -0.2)"/><path class="cls-2" d="M123,41.74c-.09,11.22-5.85,23-16.91,27a28.23,28.23,0,0,1-9.2,1.62H78.31V12.89c3.72.13,19.87-.32,23.24.44a24,24,0,0,1,8.3,3C118.63,21.39,123,31.9,123,41.74Z" transform="translate(0 -0.2)"/></svg>