<?xml version="1.0" encoding="UTF-8" standalone="no"?>
<!-- Created with Inkscape (http://www.inkscape.org/) -->

<svg
   width="283.13205mm"
   height="59.128487mm"
   viewBox="0 0 283.13205 59.128487"
   version="1.1"
   id="svg5"
   xml:space="preserve"
   inkscape:export-filename="logo.svg"
   inkscape:export-xdpi="96"
   inkscape:export-ydpi="96"
   xmlns:inkscape="http://www.inkscape.org/namespaces/inkscape"
   xmlns:sodipodi="http://sodipodi.sourceforge.net/DTD/sodipodi-0.dtd"
   xmlns="http://www.w3.org/2000/svg"
   xmlns:svg="http://www.w3.org/2000/svg"><sodipodi:namedview
     id="namedview7"
     pagecolor="#ffffff"
     bordercolor="#000000"
     borderopacity="0.25"
     inkscape:showpageshadow="2"
     inkscape:pageopacity="0.0"
     inkscape:pagecheckerboard="false"
     inkscape:deskcolor="#d1d1d1"
     inkscape:document-units="mm"
     showgrid="false"
     inkscape:zoom="1.0444209"
     inkscape:cx="506.02204"
     inkscape:cy="472.03191"
     inkscape:window-width="1920"
     inkscape:window-height="1009"
     inkscape:window-x="1912"
     inkscape:window-y="58"
     inkscape:window-maximized="1"
     inkscape:current-layer="layer1" /><defs
     id="defs2" /><g
     inkscape:label="Layer 1"
     inkscape:groupmode="layer"
     id="layer1"
     transform="translate(-6.7314556,-74.268854)"><g
       style="fill:#58c4ab;fill-opacity:1"
       id="g149"
       transform="matrix(9.0784772,0,0,9.0784772,-74.338605,0.89286246)"><path
         d="m 12.082149,8.1162027 a 0.20331726,0.20331726 0 0 1 0.201691,0 L 13.80872,8.987621 A 0.20331726,0.20331726 0 0 1 13.911192,9.1641 v 1.624505 l 1.422407,0.813269 a 0.20331726,0.20331726 0 0 1 0.102472,0.175666 v 1.742836 a 0.20331726,0.20331726 0 0 1 -0.102472,0.176479 l -1.524879,0.871418 a 0.20331726,0.20331726 0 0 1 -0.201691,0 l -1.424034,-0.813269 -1.424034,0.813675 a 0.20331726,0.20331726 0 0 1 -0.201691,0 L 9.0323903,13.697262 a 0.20331726,0.20331726 0 0 1 -0.1024719,-0.17648 v -1.742835 a 0.20331726,0.20331726 0 0 1 0.1024719,-0.17648 L 10.454798,10.788605 V 9.1641 A 0.20331726,0.20331726 0 0 1 10.55727,8.987621 Z m -1.424034,3.0245473 -1.1149921,0.637197 1.1149921,0.637196 1.114992,-0.637196 z m 1.321562,0.987716 -1.118244,0.638822 v 1.274393 l 1.118244,-0.638823 z m 0.406635,1.274392 1.118245,0.638823 v -1.274393 l -1.118245,-0.638822 z m 0.20657,-1.624911 1.114992,0.637196 1.114992,-0.637196 -1.114992,-0.637197 z m 0.911675,-0.989342 V 9.514212 l -1.118245,0.63923 v 1.274392 z m -1.52488,0.639229 v -1.274392 l -1.118244,-0.63923 v 1.274393 z M 11.068003,9.1641 12.182995,9.801296 13.297987,9.1641 12.182995,8.5269036 Z m 3.961433,2.964366 -1.118244,0.638822 v 1.274393 l 1.118244,-0.638823 z m -4.574638,1.913215 V 12.767288 L 9.336553,12.128466 v 1.274392 z"
         id="path140"
         style="fill:#58c4ab;fill-opacity:1;stroke-width:0.406635" /></g><text
       xml:space="preserve"
       style="font-weight:300;font-size:85.5526px;font-family:'Nirmala UI';-inkscape-font-specification:'Nirmala UI Light';fill:#58c4ab;fill-opacity:1;stroke:none;stroke-width:0.212197;stroke-linecap:round;stroke-linejoin:bevel;stroke-miterlimit:4.5;stroke-dashoffset:1.05449"
       x="66.081665"
       y="132.62675"
       id="text3095"><tspan
         sodipodi:role="line"
         id="tspan3093"
         style="font-style:italic;font-variant:normal;font-weight:bold;font-stretch:normal;font-size:85.5526px;font-family:'Gill Sans MT';-inkscape-font-specification:'Gill Sans MT Bold Italic';stroke:none;stroke-width:0.212197"
         x="66.081665"
         y="132.62675"
         dx="0">VMVE</tspan></text></g></svg>
